<svg viewBox="0 0 40 40" fill="none" xmlns="http://www.w3.org/2000/svg">
    <style>
        @media (prefers-color-scheme: dark) {
            :root {
                --color-logo-body-gradient-1: #FFC700;
                --color-logo-body-gradient-2: #FFC700;
                --color-logo-body-gradient-3: #FFAA00;
                --color-logo-tentacle: #8d670b;
            }
        }

        @media (prefers-color-scheme: light) {
            :root {
                --color-logo-body-gradient-1: #DE9709;
                --color-logo-body-gradient-2: #FFAA00;
                --color-logo-body-gradient-3: #FFC700;
                --color-logo-tentacle: #DB9200;
            }
        }

        [data-theme='light'] {
            --color-logo-body-gradient-1: #DE9709;
            --color-logo-body-gradient-2: #FFAA00;
            --color-logo-body-gradient-3: #FFC700;
            --color-logo-tentacle: #DB9200;
        }
    
    </style>
    <path d="M5.28808 19.7527L14.1837 28.4509L14.1837 39.9995L5.28302 31.294L5.28808 19.7527Z" fill="var(--color-logo-tentacle)"/>
    <path d="M33.9949 19.7527L25.0993 28.4509L25.0993 39.9995L34 31.294L33.9949 19.7527Z" fill="var(--color-logo-tentacle)"/>
    <path fill-rule="evenodd" clip-rule="evenodd" d="M29.3294 13.2721L34.2049 19.747V31.294L24.9911 19.747V24.8481H24.9904V24.8488L14.4968 24.8488V19.7477H14.4968V19.747L5.28302 31.294L5.28302 19.7527L10.1585 13.28V9.17384C10.1585 3.05795 14.9512 0 19.744 0C22.106 0 24.468 0.742731 26.2563 2.22819C28.0966 3.75685 29.3294 6.07206 29.3294 9.17384L29.3294 13.2721L29.3294 13.2721ZM19.744 5.75545C21.2537 5.75545 22.7634 6.83514 22.7634 8.99452L22.7634 13.2748L16.7245 13.2773V8.99452C16.7245 7.40326 17.5444 6.3983 18.5799 5.97965C18.9496 5.83019 19.3468 5.75545 19.744 5.75545ZM16.7245 13.2773V13.28L22.7634 13.28L16.7245 13.28V13.2773H16.7245ZM19.7439 29.9788L14.4968 24.8488L24.9911 24.8488L19.7439 29.9788Z" fill="url(#logo-3dverse-body)"/>
    <defs>
        <linearGradient id="logo-3dverse-body" x1="20" y1="0" x2="20" y2="55.4128" gradientUnits="userSpaceOnUse">
            <stop stop-color="var(--color-logo-body-gradient-1)"/>
            <stop offset="0.48" stop-color="var(--color-logo-body-gradient-2)"/>
            <stop offset="1" stop-color="var(--color-logo-body-gradient-3)"/>
        </linearGradient>
    </defs>
</svg>
