<svg viewBox="0 0 100 66"
    xmlns="http://www.w3.org/2000/svg">
    <rect x="34" width="32" height="32" rx="4.89796" fill="currentColor" fill-opacity="0.25"/>
    <path d="M44.4531 23.7551L40.2544 8.61595H42.6568L45.6063 20.3399H45.7468L48.8145 8.61595H51.1948L54.2625 20.3473H54.403L57.3451 8.61595H59.7549L55.5488 23.7551H53.2498L50.0638 12.4155H49.9455L46.7595 23.7551H44.4531Z" fill="currentColor"/>
    <rect x="34" y="34" width="32" height="32" rx="4.89796" fill="currentColor" fill-opacity="0.25"/>
    <path d="M53.2221 46.5929C53.1432 45.8931 52.818 45.351 52.2463 44.9667C51.6747 44.5773 50.9552 44.3827 50.0878 44.3827C49.4669 44.3827 48.9297 44.4812 48.4763 44.6784C48.0229 44.8706 47.6706 45.1367 47.4192 45.4767C47.1728 45.8118 47.0496 46.1938 47.0496 46.6225C47.0496 46.9823 47.1334 47.2927 47.301 47.5539C47.4734 47.8151 47.6977 48.0344 47.9736 48.2118C48.2545 48.3843 48.5552 48.5297 48.8755 48.648C49.1958 48.7613 49.5038 48.8549 49.7995 48.9289L51.2779 49.3132C51.7609 49.4315 52.2562 49.5917 52.7638 49.7937C53.2714 49.9958 53.742 50.2619 54.1757 50.5921C54.6093 50.9223 54.9592 51.3313 55.2254 51.8192C55.4964 52.3071 55.6319 52.8911 55.6319 53.5711C55.6319 54.4286 55.4102 55.19 54.9666 55.8553C54.528 56.5206 53.8898 57.0454 53.0521 57.4298C52.2192 57.8142 51.2114 58.0064 50.0287 58.0064C48.8952 58.0064 47.9145 57.8266 47.0866 57.4668C46.2587 57.1071 45.6106 56.597 45.1424 55.9366C44.6743 55.2713 44.4156 54.4828 44.3663 53.5711H46.6578C46.7022 54.1182 46.8796 54.574 47.1901 54.9387C47.5055 55.2984 47.9071 55.567 48.395 55.7444C48.8878 55.9169 49.4274 56.0032 50.0139 56.0032C50.6595 56.0032 51.2336 55.9021 51.7363 55.7001C52.2439 55.4931 52.643 55.2073 52.9338 54.8426C53.2245 54.473 53.3699 54.0418 53.3699 53.549C53.3699 53.1005 53.2418 52.7334 52.9855 52.4475C52.7342 52.1617 52.3917 51.9251 51.958 51.7379C51.5293 51.5506 51.0439 51.3855 50.5018 51.2426L48.7129 50.7547C47.5005 50.4245 46.5396 49.9391 45.8299 49.2985C45.1252 48.6578 44.7728 47.8102 44.7728 46.7556C44.7728 45.8833 45.0094 45.1219 45.4825 44.4714C45.9556 43.8209 46.5962 43.3157 47.4045 42.956C48.2127 42.5913 49.1244 42.409 50.1396 42.409C51.1646 42.409 52.0689 42.5888 52.8525 42.9486C53.641 43.3083 54.2619 43.8036 54.7153 44.4344C55.1687 45.0603 55.4052 45.7798 55.4249 46.5929H53.2221Z" fill="currentColor"/>
    <rect x="68" y="34" width="32" height="32" rx="4.89796" fill="currentColor" fill-opacity="0.25"/>
    <path d="M83.0529 57.7551H78.1519V42.6159H83.2081C84.6915 42.6159 85.9654 42.919 87.0299 43.5252C88.0944 44.1264 88.91 44.9913 89.4767 46.1198C90.0484 47.2434 90.3342 48.5913 90.3342 50.1633C90.3342 51.7403 90.0459 53.0956 89.4693 54.229C88.8976 55.3625 88.0697 56.2348 86.9855 56.8459C85.9013 57.452 84.5905 57.7551 83.0529 57.7551ZM80.4361 55.7592H82.9272C84.0804 55.7592 85.0389 55.5424 85.8028 55.1087C86.5666 54.6701 87.1383 54.0368 87.5178 53.2089C87.8972 52.3761 88.087 51.3609 88.087 50.1633C88.087 48.9757 87.8972 47.9679 87.5178 47.14C87.1432 46.312 86.5839 45.6837 85.8397 45.255C85.0956 44.8262 84.1716 44.6118 83.0677 44.6118H80.4361V55.7592Z" fill="currentColor"/>
    <rect y="34" width="32" height="32" rx="4.89796" fill="currentColor" fill-opacity="0.25"/>
    <path d="M11.6544 57.7551H9.22973L14.6778 42.6159H17.3168L22.7648 57.7551H20.3401L16.0601 45.3658H15.9418L11.6544 57.7551ZM12.0609 51.8266H19.9262V53.7485H12.0609V51.8266Z" fill="currentColor"/>
</svg>
