<svg viewBox="0 0 77 49" fill="none" xmlns="http://www.w3.org/2000/svg">
    <rect x="26" width="25" height="24" rx="4" fill="white" fill-opacity="0.25"/>
    <path d="M33.7365 18L30.5092 6.36364H32.3558L34.6229 15.375H34.7308L37.0888 6.36364H38.9183L41.2763 15.3807H41.3842L43.6456 6.36364H45.4979L42.2649 18H40.4979L38.049 9.28409H37.9581L35.5092 18H33.7365Z" fill="currentColor"/>
    <rect x="26" y="25" width="25" height="24" rx="4" fill="white" fill-opacity="0.25"/>
    <path d="M40.9766 34.4205C40.916 33.8826 40.666 33.4659 40.2266 33.1705C39.7872 32.8712 39.2341 32.7216 38.5675 32.7216C38.0902 32.7216 37.6773 32.7973 37.3288 32.9489C36.9804 33.0966 36.7095 33.3011 36.5163 33.5625C36.3269 33.8201 36.2322 34.1136 36.2322 34.4432C36.2322 34.7197 36.2966 34.9583 36.4254 35.1591C36.558 35.3598 36.7304 35.5284 36.9425 35.6648C37.1584 35.7973 37.3894 35.9091 37.6357 36C37.8819 36.0871 38.1186 36.1591 38.3459 36.2159L39.4822 36.5114C39.8535 36.6023 40.2341 36.7254 40.6243 36.8807C41.0144 37.036 41.3762 37.2405 41.7095 37.4943C42.0429 37.7481 42.3118 38.0625 42.5163 38.4375C42.7247 38.8125 42.8288 39.2614 42.8288 39.7841C42.8288 40.4432 42.6584 41.0284 42.3175 41.5398C41.9804 42.0511 41.4898 42.4545 40.8459 42.75C40.2057 43.0455 39.4311 43.1932 38.522 43.1932C37.6508 43.1932 36.897 43.0549 36.2607 42.7784C35.6243 42.5019 35.1262 42.1098 34.7663 41.6023C34.4065 41.0909 34.2076 40.4848 34.1697 39.7841H35.9311C35.9652 40.2045 36.1016 40.5549 36.3402 40.8352C36.5826 41.1117 36.8913 41.3182 37.2663 41.4545C37.6451 41.5871 38.0599 41.6534 38.5107 41.6534C39.0069 41.6534 39.4482 41.5758 39.8345 41.4205C40.2247 41.2614 40.5315 41.0417 40.755 40.7614C40.9785 40.4773 41.0902 40.1458 41.0902 39.767C41.0902 39.4223 40.9917 39.1402 40.7947 38.9205C40.6016 38.7008 40.3383 38.5189 40.005 38.375C39.6754 38.2311 39.3023 38.1042 38.8857 37.9943L37.5107 37.6193C36.5788 37.3655 35.8402 36.9924 35.2947 36.5C34.7531 36.0076 34.4822 35.3561 34.4822 34.5455C34.4822 33.875 34.6641 33.2898 35.0277 32.7898C35.3913 32.2898 35.8838 31.9015 36.505 31.625C37.1262 31.3447 37.8269 31.2045 38.6072 31.2045C39.3951 31.2045 40.0902 31.3428 40.6925 31.6193C41.2985 31.8958 41.7758 32.2765 42.1243 32.7614C42.4728 33.2424 42.6546 33.7955 42.6697 34.4205H40.9766Z" fill="currentColor"/>
    <rect x="52" y="25" width="25" height="24" rx="4" fill="white" fill-opacity="0.25"/>
    <path d="M63.272 43H59.505V31.3636H63.3913C64.5315 31.3636 65.5107 31.5966 66.3288 32.0625C67.147 32.5246 67.7739 33.1894 68.2095 34.0568C68.6489 34.9205 68.8686 35.9564 68.8686 37.1648C68.8686 38.3769 68.647 39.4186 68.2038 40.2898C67.7644 41.161 67.1281 41.8314 66.2947 42.3011C65.4614 42.767 64.4538 43 63.272 43ZM61.2607 41.4659H63.1754C64.0618 41.4659 64.7985 41.2992 65.3857 40.9659C65.9728 40.6288 66.4122 40.142 66.7038 39.5057C66.9955 38.8655 67.1413 38.0852 67.1413 37.1648C67.1413 36.2519 66.9955 35.4773 66.7038 34.8409C66.416 34.2045 65.986 33.7216 65.4141 33.392C64.8421 33.0625 64.1319 32.8977 63.2834 32.8977H61.2607V41.4659Z" fill="currentColor"/>
    <rect y="25" width="25" height="24" rx="4" fill="white" fill-opacity="0.25"/>
    <path d="M8.6598 43H6.79616L10.9837 31.3636H13.0121L17.1996 43H15.3359L12.0462 33.4773H11.9553L8.6598 43ZM8.9723 38.4432H15.0178V39.9205H8.9723V38.4432Z" fill="currentColor"/>
</svg>
